<?xml version="1.0" encoding="utf-8"?>
<!-- Generator: Adobe Illustrator 22.1.0, SVG Export Plug-In . SVG Version: 6.00 Build 0)  -->
<svg version="1.0" id="Layer_1" xmlns="http://www.w3.org/2000/svg" xmlns:xlink="http://www.w3.org/1999/xlink" x="0px" y="0px"
	 viewBox="0 0 120 60" style="enable-background:new 0 0 120 60;" xml:space="preserve">
<style type="text/css">
	.st0{fill:#231F20;}
</style>
<g>
	<polyline class="st0" points="77.3,16.6 77.3,43.4 78.1,43.4 78.1,16.6 	"/>
	<path class="st0" d="M105.9,41.1c-0.1,0-0.1,0-0.2,0c-0.2,0-0.4,0.1-0.5,0.3c-0.1,0.1-0.2,0.3-0.2,0.5v1.4h-0.6v-1.9
		c0-0.3,0-0.6,0-0.9h0.5l0,0.5h0c0.1-0.2,0.2-0.3,0.3-0.4c0.1-0.1,0.3-0.1,0.4-0.1c0.1,0,0.1,0,0.2,0V41.1L105.9,41.1z M103.8,41.8
		c0,0.1,0,0.2,0,0.3H102c0,0.3,0.1,0.5,0.3,0.6c0.2,0.1,0.4,0.2,0.6,0.2c0.3,0,0.5,0,0.7-0.1l0.1,0.4c-0.2,0.1-0.5,0.2-0.9,0.2
		c-0.4,0-0.8-0.1-1-0.4c-0.2-0.3-0.4-0.6-0.4-1c0-0.4,0.1-0.8,0.3-1c0.2-0.3,0.6-0.4,1-0.4c0.4,0,0.7,0.1,0.9,0.4
		C103.7,41.2,103.8,41.5,103.8,41.8 M103.3,41.6c0-0.2,0-0.3-0.1-0.5c-0.1-0.2-0.3-0.3-0.5-0.3c-0.2,0-0.4,0.1-0.5,0.2
		c-0.1,0.1-0.2,0.3-0.2,0.5H103.3L103.3,41.6z M100.8,43.3h-0.6v-4h0.6V43.3L100.8,43.3z M99.5,43.3h-0.6v-4h0.6V43.3L99.5,43.3z
		 M98.3,41.8c0,0.1,0,0.2,0,0.3h-1.8c0,0.3,0.1,0.5,0.3,0.6c0.1,0.1,0.3,0.2,0.5,0.2c0.3,0,0.5,0,0.8-0.1l0.1,0.4
		c-0.3,0.1-0.6,0.2-0.9,0.2c-0.4,0-0.7-0.1-0.9-0.4c-0.2-0.3-0.4-0.6-0.4-1c0-0.4,0.1-0.8,0.3-1c0.2-0.3,0.6-0.4,0.9-0.4
		c0.4,0,0.7,0.1,0.9,0.4C98.2,41.2,98.3,41.5,98.3,41.8 M97.7,41.6c0-0.2,0-0.3-0.1-0.5c-0.1-0.2-0.3-0.3-0.5-0.3
		c-0.2,0-0.3,0.1-0.4,0.2c-0.1,0.1-0.2,0.3-0.2,0.5H97.7L97.7,41.6z M95.5,42.5c0,0.2-0.1,0.5-0.3,0.6c-0.2,0.2-0.5,0.2-0.8,0.2
		c-0.3,0-0.6-0.1-0.8-0.2l0.1-0.5c0.2,0.1,0.4,0.2,0.7,0.2c0.3,0,0.5-0.1,0.5-0.3c0-0.1,0-0.2-0.1-0.3c-0.1-0.1-0.2-0.1-0.4-0.2
		c-0.5-0.2-0.7-0.4-0.7-0.8c0-0.2,0.1-0.4,0.3-0.6c0.2-0.2,0.4-0.2,0.7-0.2c0.3,0,0.5,0.1,0.7,0.2l-0.1,0.4
		c-0.2-0.1-0.4-0.2-0.6-0.2c-0.1,0-0.2,0-0.3,0.1c-0.1,0.1-0.1,0.1-0.1,0.2c0,0.1,0,0.2,0.1,0.2c0.1,0.1,0.2,0.1,0.4,0.2
		C95.2,41.9,95.5,42.1,95.5,42.5 M93.2,41.8c0,0.1,0,0.2,0,0.3h-1.9c0,0.3,0.1,0.5,0.3,0.6c0.2,0.1,0.4,0.2,0.6,0.2
		c0.3,0,0.5,0,0.8-0.1l0.1,0.4c-0.3,0.1-0.6,0.2-0.9,0.2c-0.4,0-0.8-0.1-1-0.4c-0.2-0.3-0.4-0.6-0.4-1c0-0.4,0.1-0.8,0.3-1
		c0.2-0.3,0.6-0.4,1-0.4c0.4,0,0.7,0.1,0.9,0.4C93.1,41.2,93.2,41.5,93.2,41.8 M92.6,41.6c0-0.2,0-0.3-0.1-0.5
		c-0.1-0.2-0.3-0.3-0.5-0.3c-0.2,0-0.4,0.1-0.5,0.2c-0.1,0.1-0.2,0.3-0.2,0.5H92.6L92.6,41.6z M90.6,43.3h-0.7
		c-0.1-0.1-0.1-0.4-0.2-0.9c-0.1-0.3-0.1-0.4-0.2-0.5c-0.1-0.1-0.3-0.2-0.5-0.2h-0.4v1.6h-0.6v-3.8c0.3-0.1,0.6-0.1,1-0.1
		c0.5,0,0.9,0.1,1.2,0.3c0.2,0.2,0.3,0.4,0.3,0.8c0,0.2-0.1,0.4-0.2,0.6c-0.1,0.2-0.3,0.3-0.5,0.3v0c0.3,0.1,0.4,0.4,0.6,0.8
		c0.1,0.3,0.1,0.5,0.2,0.7C90.5,43.1,90.5,43.2,90.6,43.3 M89.8,40.6c0-0.4-0.3-0.7-0.8-0.7c-0.2,0-0.3,0-0.4,0v1.3H89
		c0.2,0,0.4-0.1,0.6-0.2C89.7,40.9,89.8,40.8,89.8,40.6 M107,37.4h-0.6v-1.5c0-0.5-0.2-0.8-0.5-0.8c-0.2,0-0.3,0.1-0.4,0.2
		c-0.1,0.1-0.2,0.3-0.2,0.4v1.7h-0.6v-1.6c0-0.2,0-0.4-0.1-0.5c-0.1-0.1-0.2-0.2-0.4-0.2c-0.2,0-0.3,0.1-0.4,0.2
		c-0.1,0.1-0.1,0.3-0.1,0.5v1.6h-0.6v-2c0-0.2,0-0.5,0-0.8h0.5l0,0.4h0c0.2-0.3,0.4-0.5,0.8-0.5c0.4,0,0.6,0.2,0.8,0.5h0
		c0.1-0.1,0.2-0.3,0.3-0.4c0.2-0.1,0.4-0.2,0.6-0.2c0.2,0,0.4,0.1,0.6,0.3c0.2,0.2,0.3,0.5,0.3,0.9V37.4L107,37.4z M102.4,37.4h-0.5
		l0-0.4h0c-0.2,0.3-0.5,0.5-0.9,0.5c-0.3,0-0.5-0.1-0.7-0.3c-0.2-0.2-0.3-0.5-0.3-0.9v-1.6h0.6v1.5c0,0.5,0.2,0.8,0.5,0.8
		c0.3,0,0.5-0.1,0.6-0.4c0-0.1,0-0.1,0-0.2v-1.7h0.6v2C102.4,36.8,102.4,37.1,102.4,37.4 M99.4,33.8c0,0.1,0,0.2-0.1,0.3
		c-0.1,0.1-0.2,0.1-0.3,0.1c-0.1,0-0.2,0-0.3-0.1c-0.1-0.1-0.1-0.2-0.1-0.3c0-0.1,0-0.2,0.1-0.3c0.1-0.1,0.2-0.1,0.3-0.1
		c0.1,0,0.2,0,0.3,0.1C99.4,33.6,99.4,33.7,99.4,33.8 M99.3,37.4h-0.6v-2.8h0.6V37.4L99.3,37.4z M97.9,37.4h-0.6v-1.5
		c0-0.5-0.2-0.8-0.5-0.8c-0.1,0-0.3,0.1-0.4,0.2c-0.1,0.1-0.1,0.3-0.1,0.4v1.7h-0.6v-1.6c0-0.2,0-0.4-0.1-0.5
		c-0.1-0.1-0.2-0.2-0.4-0.2c-0.2,0-0.3,0.1-0.4,0.2c-0.1,0.1-0.2,0.3-0.2,0.5v1.6h-0.6v-2c0-0.2,0-0.5,0-0.8h0.5l0,0.4h0
		c0.2-0.3,0.5-0.5,0.8-0.5c0.4,0,0.6,0.2,0.8,0.5h0c0.1-0.1,0.2-0.3,0.3-0.4c0.2-0.1,0.3-0.2,0.5-0.2c0.2,0,0.5,0.1,0.6,0.3
		c0.2,0.2,0.3,0.5,0.3,0.9V37.4L97.9,37.4z M93.3,35c-0.2-0.3-0.5-0.4-0.9-0.4c-0.4,0-0.7,0.2-1,0.4c-0.2,0.3-0.3,0.6-0.3,1
		c0,0.4,0.1,0.8,0.4,1c0.2,0.3,0.6,0.4,1,0.4c0.4,0,0.7-0.1,0.9-0.2l-0.1-0.4c-0.2,0.1-0.5,0.1-0.8,0.1c-0.3,0-0.5-0.1-0.6-0.2
		c-0.2-0.1-0.3-0.4-0.3-0.6h1.9c0-0.1,0-0.2,0-0.3C93.6,35.5,93.5,35.2,93.3,35 M91.7,35.7c0-0.2,0.1-0.4,0.2-0.5
		c0.1-0.2,0.3-0.3,0.5-0.3c0.2,0,0.4,0.1,0.5,0.3c0.1,0.1,0.1,0.3,0.1,0.5H91.7L91.7,35.7z M90.9,35.1c-0.1,0-0.1,0-0.2,0
		c-0.2,0-0.4,0.1-0.5,0.2c-0.1,0.1-0.2,0.3-0.2,0.5v1.4h-0.6v-1.9c0-0.3,0-0.6,0-0.9h0.5l0,0.5h0c0.1-0.2,0.2-0.3,0.3-0.4
		c0.1-0.1,0.3-0.2,0.5-0.2c0,0,0.1,0,0.1,0V35.1L90.9,35.1z M89,34.6c0,0.4-0.1,0.6-0.3,0.8c-0.3,0.3-0.7,0.4-1.2,0.4
		c-0.2,0-0.3,0-0.3,0v1.5h-0.6v-3.8c0.2-0.1,0.6-0.1,0.9-0.1c0.5,0,0.9,0.1,1.1,0.3C88.9,34,89,34.3,89,34.6 M88.4,34.7
		c0-0.2-0.1-0.4-0.2-0.5C88,34,87.8,34,87.6,34c-0.2,0-0.3,0-0.4,0v1.4c0.1,0,0.2,0,0.4,0c0.3,0,0.5-0.1,0.6-0.2
		C88.3,35.1,88.4,34.9,88.4,34.7"/>
	<path class="st0" d="M98.7,18.8c0.5-0.6,0.8-1.3,0.7-2.1c-0.7,0-1.5,0.4-1.9,1c-0.4,0.5-0.7,1.3-0.6,2
		C97.4,19.8,98.2,19.3,98.7,18.8"/>
	<path class="st0" d="M102.1,26.3c0,0-0.3,0.9-0.9,1.9c-0.6,0.8-1.2,1.6-2,1.6c-0.9,0-1.2-0.5-2.2-0.5c-0.9,0-1.3,0.5-2.1,0.5
		c-0.9,0-1.5-0.8-2.1-1.7c-1.1-1.6-2-4.6-0.8-6.5c0.6-1,1.6-1.6,2.8-1.6c0.9,0,1.7,0.6,2.2,0.6c0.5,0,1.4-0.7,2.5-0.6
		c0.4,0,1.7,0.2,2.4,1.3c-0.1,0-1.5,0.8-1.4,2.4C100.3,25.7,102.1,26.3,102.1,26.3"/>
	<path class="st0" d="M61.4,23.4v2.4h-1.7v3h1.7v5.3c0,1.8,0.4,3.1,1.1,3.9c0.7,0.7,1.7,1.1,3,1.1c1.1,0,2.1-0.2,2.6-0.3l0-3.1
		c-0.4,0.1-0.6,0.1-1.2,0.1c-1.2,0-1.6-0.7-1.6-2.3v-4.7h2.9v-3h-2.9v-3.5L61.4,23.4L61.4,23.4z M50.2,38.8h4v-6.6
		c0-0.3,0-0.6,0.1-0.9c0.3-1.2,1.3-2,2.7-2c0.4,0,0.8,0.1,1.1,0.1v-3.8c-0.3-0.1-0.5-0.1-0.8-0.1c-1.3,0-2.8,0.8-3.5,2.7h-0.1
		l-0.2-2.4h-3.4c0.1,1.1,0.1,2.4,0.1,4.3V38.8L50.2,38.8z M41.1,28.3c1.8,0,2.6,2,2.6,3.9c0,2.4-1,3.9-2.6,3.9
		c-1.7,0-2.6-1.7-2.6-3.9C38.4,30.3,39.2,28.3,41.1,28.3 M41.2,25.5c-4.2,0-6.9,2.7-6.9,6.9c0,4.2,2.9,6.7,6.7,6.7
		c3.5,0,6.8-2.2,6.8-6.9C47.8,28.2,45.1,25.5,41.2,25.5 M24.4,23.9c0.3-0.1,0.8-0.1,1.6-0.1c2,0,3.2,1,3.2,2.6
		c0,1.8-1.3,2.9-3.5,2.9c-0.6,0-1,0-1.3-0.1V23.9L24.4,23.9z M20.5,38.8h4v-6.4c0.4,0.1,0.8,0.1,1.4,0.1c2.4,0,4.4-0.6,5.8-1.9
		c1.1-1,1.6-2.5,1.6-4.3c0-1.8-0.7-3.2-1.9-4.1c-1.2-1-3-1.4-5.4-1.4c-2.5,0-4.2,0.2-5.4,0.4V38.8L20.5,38.8z M15.1,20.1
		c-1.3,0-2.1,0.9-2.1,2c0,1.1,0.8,2,2.1,2c1.3,0,2.2-0.9,2.2-2C17.2,21,16.4,20.1,15.1,20.1 M17.1,25.8h-4v13h4V25.8L17.1,25.8z"/>
	<path class="st0" d="M68.6,20.7c0.8,0,1.4,0.7,1.4,1.5c0,0.8-0.6,1.5-1.4,1.5c-0.8,0-1.5-0.7-1.5-1.5
		C67.2,21.4,67.8,20.7,68.6,20.7 M68.7,20.3c-1.1,0-1.9,0.8-1.9,1.9c0,1.1,0.9,1.9,1.9,1.9c1.1,0,1.9-0.8,1.9-1.9
		C70.6,21.2,69.7,20.3,68.7,20.3 M68.4,21.6c0,0,0.1,0,0.2,0c0.3,0,0.4,0.1,0.4,0.3c0,0.2-0.2,0.3-0.4,0.3h-0.2V21.6L68.4,21.6z
		 M68.3,22.5h0.2c0.2,0,0.4,0.1,0.4,0.3c0.1,0.2,0.1,0.4,0.1,0.5h0.5c0-0.1-0.1-0.2-0.1-0.5c-0.1-0.3-0.1-0.4-0.3-0.5v0
		c0.2-0.1,0.4-0.2,0.4-0.4c0-0.2-0.1-0.3-0.2-0.4c-0.1-0.1-0.3-0.1-0.6-0.1c-0.3,0-0.5,0-0.7,0.1v1.9h0.4V22.5L68.3,22.5z"/>
</g>
</svg>
