<?xml version="1.0" encoding="utf-8"?>
<!-- Generator: Adobe Illustrator 22.1.0, SVG Export Plug-In . SVG Version: 6.00 Build 0)  -->
<svg version="1.0" id="Layer_1" xmlns="http://www.w3.org/2000/svg" xmlns:xlink="http://www.w3.org/1999/xlink" x="0px" y="0px"
	 viewBox="0 0 360 360" style="enable-background:new 0 0 360 360;" xml:space="preserve">
<style type="text/css">
	.st0{filter:url(#Adobe_OpacityMaskFilter);}
	.st1{fill:#FFFFFF;}
	.st2{mask:url(#b_2_);}
	.st3{fill:#8E8E8E;}
	.st4{fill:#222222;}
	.st5{fill:#2D2D2D;}
	.st6{fill:#4A4A4A;}
	.st7{filter:url(#Adobe_OpacityMaskFilter_1_);}
	.st8{mask:url(#d_2_);}
	.st9{filter:url(#Adobe_OpacityMaskFilter_2_);}
	.st10{mask:url(#f_2_);}
	.st11{filter:url(#Adobe_OpacityMaskFilter_3_);}
	.st12{mask:url(#h_2_);}
	.st13{fill:#AFAFAF;}
	.st14{fill:#BFBFBF;}
	.st15{fill:#D1D1D1;}
	.st16{filter:url(#Adobe_OpacityMaskFilter_4_);}
	.st17{mask:url(#j_2_);}
	.st18{fill:#FDD301;}
	.st19{filter:url(#Adobe_OpacityMaskFilter_5_);}
	.st20{mask:url(#l_2_);}
	.st21{fill:#A48900;}
	.st22{fill:#FDE35F;}
	.st23{filter:url(#Adobe_OpacityMaskFilter_6_);}
	.st24{mask:url(#n_2_);}
	.st25{filter:url(#Adobe_OpacityMaskFilter_7_);}
	.st26{mask:url(#p_2_);}
	.st27{filter:url(#Adobe_OpacityMaskFilter_8_);}
	.st28{mask:url(#r_2_);}
	.st29{filter:url(#Adobe_OpacityMaskFilter_9_);}
	.st30{mask:url(#t_2_);}
	.st31{filter:url(#Adobe_OpacityMaskFilter_10_);}
	.st32{mask:url(#v_2_);}
	.st33{fill:#3A3A3A;}
	.st34{fill:#3F3F3F;}
	.st35{filter:url(#Adobe_OpacityMaskFilter_11_);}
	.st36{mask:url(#x_2_);}
	.st37{filter:url(#Adobe_OpacityMaskFilter_12_);}
	.st38{mask:url(#z_2_);}
	.st39{filter:url(#Adobe_OpacityMaskFilter_13_);}
	.st40{mask:url(#B_2_);}
	.st41{fill:#5C5C5C;}
	.st42{filter:url(#Adobe_OpacityMaskFilter_14_);}
	.st43{mask:url(#D_2_);}
	.st44{filter:url(#Adobe_OpacityMaskFilter_15_);}
	.st45{mask:url(#F_2_);}
	.st46{filter:url(#Adobe_OpacityMaskFilter_16_);}
	.st47{mask:url(#H_2_);}
	.st48{filter:url(#Adobe_OpacityMaskFilter_17_);}
	.st49{mask:url(#J_2_);}
	.st50{filter:url(#Adobe_OpacityMaskFilter_18_);}
	.st51{mask:url(#L_2_);}
	.st52{filter:url(#Adobe_OpacityMaskFilter_19_);}
	.st53{mask:url(#N_2_);}
	.st54{filter:url(#Adobe_OpacityMaskFilter_20_);}
	.st55{mask:url(#P_2_);}
	.st56{filter:url(#Adobe_OpacityMaskFilter_21_);}
	.st57{mask:url(#R_2_);}
	.st58{filter:url(#Adobe_OpacityMaskFilter_22_);}
	.st59{mask:url(#T_2_);}
	.st60{filter:url(#Adobe_OpacityMaskFilter_23_);}
	.st61{mask:url(#V_2_);}
	.st62{filter:url(#Adobe_OpacityMaskFilter_24_);}
	.st63{mask:url(#X_2_);}
	.st64{filter:url(#Adobe_OpacityMaskFilter_25_);}
	.st65{mask:url(#Z_2_);}
	.st66{filter:url(#Adobe_OpacityMaskFilter_26_);}
	.st67{mask:url(#ab_2_);}
</style>
<g>
	<g transform="translate(152.563 121.71)">
		<g>
			<path id="a_1_" d="M92.4,9l58.4,34.4v68.9l-58.4,34.4L34,112.3V43.4L92.4,9z"/>
		</g>
		<defs>
			<filter id="Adobe_OpacityMaskFilter" filterUnits="userSpaceOnUse" x="34.2" y="9" width="116.6" height="137.7">
				<feColorMatrix  type="matrix" values="1 0 0 0 0  0 1 0 0 0  0 0 1 0 0  0 0 0 1 0"/>
			</filter>
		</defs>
		<mask maskUnits="userSpaceOnUse" x="34.2" y="9" width="116.6" height="137.7" id="b_2_">
			<g class="st0">
				<path id="a_3_" class="st1" d="M92.4,9l58.4,34.4v68.9l-58.4,34.4L34,112.3V43.4L92.4,9z"/>
			</g>
		</mask>
		<g class="st2">
			<path class="st3" d="M92.4,9l58.3,34.4v68.8l-58.3,34.4l-58.3-34.4V43.4L92.4,9z"/>
			<path class="st4" d="M92.5,146.7V77.9l58.3-34.4v68.9L92.5,146.7z"/>
			<path class="st5" d="M92.4,77.9l58.3-34.4L92.4,9L34.2,43.4L92.4,77.9z"/>
			<path class="st6" d="M34.2,43.4l58.3,34.4v68.8l-58.3-34.4V43.4z"/>
		</g>
	</g>
	<g transform="translate(145.966 83.455)">
		<g>
			<path id="c_1_" d="M99.5,9L165,47.5v77L99.5,163L34,124.5v-77L99.5,9z"/>
		</g>
		<defs>
			<filter id="Adobe_OpacityMaskFilter_1_" filterUnits="userSpaceOnUse" x="34.2" y="9" width="130.7" height="154">
				<feColorMatrix  type="matrix" values="1 0 0 0 0  0 1 0 0 0  0 0 1 0 0  0 0 0 1 0"/>
			</filter>
		</defs>
		<mask maskUnits="userSpaceOnUse" x="34.2" y="9" width="130.7" height="154" id="d_2_">
			<g class="st7">
				<path id="c_3_" class="st1" d="M99.5,9L165,47.5v77L99.5,163L34,124.5v-77L99.5,9z"/>
			</g>
		</mask>
		<g class="st8">
			<path class="st3" d="M99.5,9l65.3,38.5v77l-65.3,38.5l-65.3-38.5v-77L99.5,9z"/>
			<path class="st4" d="M99.5,163V86l65.3-38.5v77L99.5,163z"/>
			<path class="st5" d="M99.5,86l65.3-38.5L99.5,9L34.2,47.5L99.5,86z"/>
			<path class="st6" d="M34.2,47.5L99.5,86v77l-65.3-38.5V47.5z"/>
		</g>
	</g>
	<g transform="translate(137.483 34.68)">
		<g>
			<path id="e_1_" d="M108,9l74,43.5v87l-74,43.5l-74-43.5v-87L108,9z"/>
		</g>
		<defs>
			<filter id="Adobe_OpacityMaskFilter_2_" filterUnits="userSpaceOnUse" x="34.2" y="9" width="147.6" height="174">
				<feColorMatrix  type="matrix" values="1 0 0 0 0  0 1 0 0 0  0 0 1 0 0  0 0 0 1 0"/>
			</filter>
		</defs>
		<mask maskUnits="userSpaceOnUse" x="34.2" y="9" width="147.6" height="174" id="f_2_">
			<g class="st9">
				<path id="e_3_" class="st1" d="M108,9l74,43.5v87l-74,43.5l-74-43.5v-87L108,9z"/>
			</g>
		</mask>
		<g class="st10">
			<path class="st3" d="M108,9l73.8,43.5v87L108,183l-73.8-43.5v-87L108,9z"/>
			<path class="st4" d="M108,183V96l73.8-43.5v87L108,183z"/>
			<path class="st5" d="M108,96l73.8-43.5L108,9L34.2,52.5L108,96z"/>
			<path class="st6" d="M34.2,52.5L108,96v87l-73.8-43.5V52.5z"/>
		</g>
	</g>
	<g transform="translate(129 -60)">
		<defs>
			<filter id="Adobe_OpacityMaskFilter_3_" filterUnits="userSpaceOnUse" x="34.2" y="94.8" width="163.6" height="191.3">
				<feColorMatrix  type="matrix" values="1 0 0 0 0  0 1 0 0 0  0 0 1 0 0  0 0 0 1 0"/>
			</filter>
		</defs>
		<mask maskUnits="userSpaceOnUse" x="34.2" y="94.8" width="163.6" height="191.3" id="h_2_">
			<g class="st11">
				<path id="g_2_" class="st1" d="M116,9l82,47.8v95.6l-82,47.8l-82-47.8V56.8L116,9z"/>
			</g>
		</mask>
		<g class="st12">
			<path class="st3" d="M116,94.8l81.8,47.8v95.6L116,286l-81.8-47.8v-95.6L116,94.8z"/>
			<path class="st13" d="M116.1,286.1v-95.6l81.8-47.8v95.6L116.1,286.1z"/>
			<path class="st14" d="M116,190.4l81.8-47.8L116,94.8l-81.8,47.8L116,190.4z"/>
			<path class="st15" d="M34.2,142.6l81.8,47.8V286l-81.8-47.8V142.6z"/>
		</g>
	</g>
	<g transform="translate(180.84 19.378)">
		<defs>
			<filter id="Adobe_OpacityMaskFilter_4_" filterUnits="userSpaceOnUse" x="34.1" y="39.9" width="59.2" height="69.8">
				<feColorMatrix  type="matrix" values="1 0 0 0 0  0 1 0 0 0  0 0 1 0 0  0 0 0 1 0"/>
			</filter>
		</defs>
		<mask maskUnits="userSpaceOnUse" x="34.1" y="39.9" width="59.2" height="69.8" id="j_2_">
			<g class="st16">
				<path id="i_2_" class="st1" d="M63.7,9l29.7,17.5v34.9L63.7,78.8L34,61.4V26.5L63.7,9z"/>
			</g>
		</mask>
		<g class="st17">
			<path class="st3" d="M63.7,39.9l29.6,17.4v34.9l-29.6,17.5L34.1,92.3V57.4L63.7,39.9z"/>
			<path class="st13" d="M63.7,109.8V74.8l29.6-17.5v34.9L63.7,109.8z"/>
			<path class="st14" d="M63.7,74.8l29.6-17.5L63.7,40L34.1,57.4L63.7,74.8z"/>
			<path class="st15" d="M34.1,57.4l29.6,17.4v34.9L34.1,92.3V57.4z"/>
		</g>
	</g>
	<g transform="translate(199.298 49.72)">
		<g>
			<path id="k_1_" class="st18" d="M44.6,9l10.6,6.3v12.6l-10.6,6.3L34,27.8V15.3L44.6,9z"/>
		</g>
		<defs>
			<filter id="Adobe_OpacityMaskFilter_5_" filterUnits="userSpaceOnUse" x="34" y="9" width="21.1" height="25.1">
				<feColorMatrix  type="matrix" values="1 0 0 0 0  0 1 0 0 0  0 0 1 0 0  0 0 0 1 0"/>
			</filter>
		</defs>
		<mask maskUnits="userSpaceOnUse" x="34" y="9" width="21.1" height="25.1" id="l_2_">
			<g class="st19">
				<path id="k_3_" class="st1" d="M44.6,9l10.6,6.3v12.6l-10.6,6.3L34,27.8V15.3L44.6,9z"/>
			</g>
		</mask>
		<g class="st20">
			<path class="st3" d="M44.6,9l10.5,6.3v12.6l-10.5,6.3L34,27.8V15.3L44.6,9z"/>
			<path class="st21" d="M44.6,34.1V21.6l10.5-6.3v12.6L44.6,34.1z"/>
			<path class="st22" d="M44.6,21.6l10.5-6.3L44.6,9L34,15.3L44.6,21.6z"/>
			<path class="st18" d="M34,15.3l10.5,6.3v12.6L34,27.8V15.3z"/>
		</g>
	</g>
	<g transform="translate(199.298 37.942)">
		<g>
			<path id="m_1_" class="st18" d="M44.6,9l10.6,6.3v12.6l-10.6,6.3L34,27.8V15.3L44.6,9z"/>
		</g>
		<defs>
			<filter id="Adobe_OpacityMaskFilter_6_" filterUnits="userSpaceOnUse" x="34" y="9" width="21.1" height="25.1">
				<feColorMatrix  type="matrix" values="1 0 0 0 0  0 1 0 0 0  0 0 1 0 0  0 0 0 1 0"/>
			</filter>
		</defs>
		<mask maskUnits="userSpaceOnUse" x="34" y="9" width="21.1" height="25.1" id="n_2_">
			<g class="st23">
				<path id="m_3_" class="st1" d="M44.6,9l10.6,6.3v12.6l-10.6,6.3L34,27.8V15.3L44.6,9z"/>
			</g>
		</mask>
		<g class="st24">
			<path class="st3" d="M44.6,9l10.5,6.3v12.6l-10.5,6.3L34,27.8V15.3L44.6,9z"/>
			<path class="st4" d="M44.6,34.1V21.6l10.5-6.3v12.6L44.6,34.1z"/>
			<path class="st5" d="M44.6,21.6l10.5-6.3L44.6,9L34,15.3L44.6,21.6z"/>
			<path class="st6" d="M34,15.3l10.5,6.3v12.6L34,27.8V15.3z"/>
		</g>
	</g>
	<g transform="translate(199.298 25.378)">
		<g>
			<path id="o_1_" class="st18" d="M44.6,9l10.6,6.3v12.6l-10.6,6.3L34,27.8V15.3L44.6,9z"/>
		</g>
		<defs>
			<filter id="Adobe_OpacityMaskFilter_7_" filterUnits="userSpaceOnUse" x="34" y="9" width="21.1" height="25.1">
				<feColorMatrix  type="matrix" values="1 0 0 0 0  0 1 0 0 0  0 0 1 0 0  0 0 0 1 0"/>
			</filter>
		</defs>
		<mask maskUnits="userSpaceOnUse" x="34" y="9" width="21.1" height="25.1" id="p_2_">
			<g class="st25">
				<path id="o_3_" class="st1" d="M44.6,9l10.6,6.3v12.6l-10.6,6.3L34,27.8V15.3L44.6,9z"/>
			</g>
		</mask>
		<g class="st26">
			<path class="st3" d="M44.6,9l10.5,6.3v12.6l-10.5,6.3L34,27.8V15.3L44.6,9z"/>
			<path class="st21" d="M44.6,34.1V21.6l10.5-6.3v12.6L44.6,34.1z"/>
			<path class="st22" d="M44.6,21.6l10.5-6.3L44.6,9L34,15.3L44.6,21.6z"/>
			<path class="st18" d="M34,15.3l10.5,6.3v12.6L34,27.8V15.3z"/>
		</g>
	</g>
	<g transform="translate(199.298 12.815)">
		<g>
			<path id="q_1_" class="st18" d="M44.6,9l10.6,6.3v12.6l-10.6,6.3L34,27.8V15.3L44.6,9z"/>
		</g>
		<defs>
			<filter id="Adobe_OpacityMaskFilter_8_" filterUnits="userSpaceOnUse" x="34" y="9" width="21.1" height="25.1">
				<feColorMatrix  type="matrix" values="1 0 0 0 0  0 1 0 0 0  0 0 1 0 0  0 0 0 1 0"/>
			</filter>
		</defs>
		<mask maskUnits="userSpaceOnUse" x="34" y="9" width="21.1" height="25.1" id="r_2_">
			<g class="st27">
				<path id="q_3_" class="st1" d="M44.6,9l10.6,6.3v12.6l-10.6,6.3L34,27.8V15.3L44.6,9z"/>
			</g>
		</mask>
		<g class="st28">
			<path class="st3" d="M44.6,9l10.5,6.3v12.6l-10.5,6.3L34,27.8V15.3L44.6,9z"/>
			<path class="st4" d="M44.6,34.1V21.6l10.5-6.3v12.6L44.6,34.1z"/>
			<path class="st5" d="M44.6,21.6l10.5-6.3L44.6,9L34,15.3L44.6,21.6z"/>
			<path class="st6" d="M34,15.3l10.5,6.3v12.6L34,27.8V15.3z"/>
		</g>
	</g>
	<g transform="translate(199.298 .251)">
		<g>
			<path id="s_1_" class="st18" d="M44.6,9l10.6,6.3v12.6l-10.6,6.3L34,27.8V15.3L44.6,9z"/>
		</g>
		<defs>
			<filter id="Adobe_OpacityMaskFilter_9_" filterUnits="userSpaceOnUse" x="34" y="9" width="21.1" height="25.1">
				<feColorMatrix  type="matrix" values="1 0 0 0 0  0 1 0 0 0  0 0 1 0 0  0 0 0 1 0"/>
			</filter>
		</defs>
		<mask maskUnits="userSpaceOnUse" x="34" y="9" width="21.1" height="25.1" id="t_2_">
			<g class="st29">
				<path id="s_3_" class="st1" d="M44.6,9l10.6,6.3v12.6l-10.6,6.3L34,27.8V15.3L44.6,9z"/>
			</g>
		</mask>
		<g class="st30">
			<path class="st3" d="M44.6,9l10.5,6.3v12.6l-10.5,6.3L34,27.8V15.3L44.6,9z"/>
			<path class="st21" d="M44.6,34.1V21.6l10.5-6.3v12.6L44.6,34.1z"/>
			<path class="st22" d="M44.6,21.6l10.5-6.3L44.6,9L34,15.3L44.6,21.6z"/>
			<path class="st18" d="M34,15.3l10.5,6.3v12.6L34,27.8V15.3z"/>
		</g>
	</g>
	<g transform="translate(189.126 7.318)">
		<g>
			<path id="u_1_" class="st18" d="M44.6,9l10.6,6.3v12.6l-10.6,6.3L34,27.8V15.3L44.6,9z"/>
		</g>
		<defs>
			<filter id="Adobe_OpacityMaskFilter_10_" filterUnits="userSpaceOnUse" x="34" y="9" width="21.1" height="25.1">
				<feColorMatrix  type="matrix" values="1 0 0 0 0  0 1 0 0 0  0 0 1 0 0  0 0 0 1 0"/>
			</filter>
		</defs>
		<mask maskUnits="userSpaceOnUse" x="34" y="9" width="21.1" height="25.1" id="v_2_">
			<g class="st31">
				<path id="u_3_" class="st1" d="M44.6,9l10.6,6.3v12.6l-10.6,6.3L34,27.8V15.3L44.6,9z"/>
			</g>
		</mask>
		<g class="st32">
			<path class="st3" d="M44.6,9l10.5,6.3v12.6l-10.5,6.3L34,27.8V15.3L44.6,9z"/>
			<path class="st4" d="M44.6,34.1V21.6l10.5-6.3v12.6L44.6,34.1z"/>
			<path class="st33" d="M44.6,21.6l10.5-6.3L44.6,9L34,15.3L44.6,21.6z"/>
			<path class="st34" d="M34,15.3l10.5,6.3v12.6L34,27.8V15.3z"/>
		</g>
	</g>
	<g transform="translate(178.954 12.815)">
		<g>
			<path id="w_1_" class="st18" d="M44.6,9l10.6,6.3v12.6l-10.6,6.3L34,27.8V15.3L44.6,9z"/>
		</g>
		<defs>
			<filter id="Adobe_OpacityMaskFilter_11_" filterUnits="userSpaceOnUse" x="34" y="9" width="21.1" height="25.1">
				<feColorMatrix  type="matrix" values="1 0 0 0 0  0 1 0 0 0  0 0 1 0 0  0 0 0 1 0"/>
			</filter>
		</defs>
		<mask maskUnits="userSpaceOnUse" x="34" y="9" width="21.1" height="25.1" id="x_2_">
			<g class="st35">
				<path id="w_3_" class="st1" d="M44.6,9l10.6,6.3v12.6l-10.6,6.3L34,27.8V15.3L44.6,9z"/>
			</g>
		</mask>
		<g class="st36">
			<path class="st3" d="M44.6,9l10.5,6.3v12.6l-10.5,6.3L34,27.8V15.3L44.6,9z"/>
			<path class="st21" d="M44.6,34.1V21.6l10.5-6.3v12.6L44.6,34.1z"/>
			<path class="st22" d="M44.6,21.6l10.5-6.3L44.6,9L34,15.3L44.6,21.6z"/>
			<path class="st18" d="M34,15.3l10.5,6.3v12.6L34,27.8V15.3z"/>
		</g>
	</g>
	<g>
		<g transform="translate(0 119.88)">
			<defs>
				<filter id="Adobe_OpacityMaskFilter_12_" filterUnits="userSpaceOnUse" x="34.3" y="104.9" width="190.5" height="220.3">
					<feColorMatrix  type="matrix" values="1 0 0 0 0  0 1 0 0 0  0 0 1 0 0  0 0 0 1 0"/>
				</filter>
			</defs>
			<mask maskUnits="userSpaceOnUse" x="34.3" y="104.9" width="190.5" height="220.3" id="z_2_">
				<g class="st37">
					<path id="y_2_" class="st1" d="M129.5,9L225,64.1v110.2l-95.5,55.1L34,174.2V64.1L129.5,9z"/>
				</g>
			</mask>
			<g class="st38">
				<path class="st3" d="M129.5,104.9l95.2,55.1v110.1l-95.2,55.1l-95.2-55.1V160L129.5,104.9z"/>
				<path class="st21" d="M129.6,325.2V215l95.2-55.1v110.2L129.6,325.2z"/>
				<path class="st22" d="M129.5,215l95.2-55.1l-95.2-55L34.3,160L129.5,215z"/>
				<path class="st18" d="M34.3,160l95.2,55.1v110.1l-95.2-55L34.3,160z"/>
			</g>
		</g>
		<g transform="translate(17.767 134.666)">
			<defs>
				<filter id="Adobe_OpacityMaskFilter_13_" filterUnits="userSpaceOnUse" x="34.2" y="89.3" width="155.8" height="179.6">
					<feColorMatrix  type="matrix" values="1 0 0 0 0  0 1 0 0 0  0 0 1 0 0  0 0 0 1 0"/>
				</filter>
			</defs>
			<mask maskUnits="userSpaceOnUse" x="34.2" y="89.3" width="155.8" height="179.6" id="B_2_">
				<g class="st39">
					<path id="A_2_" class="st1" d="M112.1,9l78.1,44.9v89.8l-78.1,44.9L34,143.7V53.9L112.1,9z"/>
				</g>
			</mask>
			<g class="st40">
				<path class="st3" d="M112.1,89.3l77.9,44.9V224l-77.9,44.9L34.2,224v-89.8L112.1,89.3z"/>
				<path class="st13" d="M112.2,268.9v-89.8l77.9-44.9v89.8L112.2,268.9z"/>
				<path class="st41" d="M112.1,179.1l77.9-44.9l-77.9-44.8l-77.9,44.9L112.1,179.1z"/>
				<path class="st15" d="M34.2,134.2l77.9,44.9v89.8L34.2,224V134.2z"/>
			</g>
		</g>
		<g transform="translate(3.702 159.8)">
			<defs>
				<filter id="Adobe_OpacityMaskFilter_14_" filterUnits="userSpaceOnUse" x="34.2" y="67.1" width="121.1" height="130.8">
					<feColorMatrix  type="matrix" values="1 0 0 0 0  0 1 0 0 0  0 0 1 0 0  0 0 0 1 0"/>
				</filter>
			</defs>
			<mask maskUnits="userSpaceOnUse" x="34.2" y="67.1" width="121.1" height="130.8" id="D_2_">
				<g class="st42">
					<path id="C_2_" class="st1" d="M94.7,9l60.7,32.7v65.4l-60.7,32.7L34,107.1V41.7L94.7,9z"/>
				</g>
			</mask>
			<g class="st43">
				<path class="st3" d="M94.7,67.1l60.5,32.7v65.4l-60.5,32.7l-60.5-32.7V99.8L94.7,67.1z"/>
				<path class="st4" d="M94.7,197.9v-65.4l60.5-32.7v65.4L94.7,197.9z"/>
				<path class="st5" d="M94.7,132.5l60.5-32.7L94.7,67.1L34.2,99.8L94.7,132.5z"/>
				<path class="st34" d="M34.2,99.8l60.5,32.7v65.4l-60.5-32.7V99.8z"/>
			</g>
		</g>
		<g transform="translate(67.368 152.408)">
			<defs>
				<filter id="Adobe_OpacityMaskFilter_15_" filterUnits="userSpaceOnUse" x="34.2" y="67.1" width="121.1" height="130.8">
					<feColorMatrix  type="matrix" values="1 0 0 0 0  0 1 0 0 0  0 0 1 0 0  0 0 0 1 0"/>
				</filter>
			</defs>
			<mask maskUnits="userSpaceOnUse" x="34.2" y="67.1" width="121.1" height="130.8" id="F_2_">
				<g class="st44">
					<path id="E_2_" class="st1" d="M94.7,9l60.7,32.7v65.4l-60.7,32.7L34,107.1V41.7L94.7,9z"/>
				</g>
			</mask>
			<g class="st45">
				<path class="st3" d="M94.7,67.1l60.5,32.7v65.4l-60.5,32.7l-60.5-32.7V99.8L94.7,67.1z"/>
				<path class="st4" d="M94.7,197.9v-65.4l60.5-32.7v65.4L94.7,197.9z"/>
				<path class="st5" d="M94.7,132.5l60.5-32.7L94.7,67.1L34.2,99.8L94.7,132.5z"/>
				<path class="st34" d="M34.2,99.8l60.5,32.7v65.4l-60.5-32.7V99.8z"/>
			</g>
		</g>
		<g transform="translate(17.767 108.791)">
			<defs>
				<filter id="Adobe_OpacityMaskFilter_16_" filterUnits="userSpaceOnUse" x="34.2" y="89.3" width="155.8" height="179.6">
					<feColorMatrix  type="matrix" values="1 0 0 0 0  0 1 0 0 0  0 0 1 0 0  0 0 0 1 0"/>
				</filter>
			</defs>
			<mask maskUnits="userSpaceOnUse" x="34.2" y="89.3" width="155.8" height="179.6" id="H_2_">
				<g class="st46">
					<path id="G_2_" class="st1" d="M112.1,9l78.1,44.9v89.8l-78.1,44.9L34,143.7V53.9L112.1,9z"/>
				</g>
			</mask>
			<g class="st47">
				<path class="st3" d="M112.1,89.3l77.9,44.9V224l-77.9,44.9L34.2,224v-89.8L112.1,89.3z"/>
				<path class="st13" d="M112.2,268.9v-89.8l77.9-44.9v89.8L112.2,268.9z"/>
				<path class="st14" d="M112.1,179.1l77.9-44.9l-77.9-44.8l-77.9,44.9L112.1,179.1z"/>
				<path class="st15" d="M34.2,134.2l77.9,44.9v89.8L34.2,224V134.2z"/>
			</g>
		</g>
		<g transform="translate(0 60)">
			<defs>
				<filter id="Adobe_OpacityMaskFilter_17_" filterUnits="userSpaceOnUse" x="34.3" y="104.9" width="190.5" height="220.3">
					<feColorMatrix  type="matrix" values="1 0 0 0 0  0 1 0 0 0  0 0 1 0 0  0 0 0 1 0"/>
				</filter>
			</defs>
			<mask maskUnits="userSpaceOnUse" x="34.3" y="104.9" width="190.5" height="220.3" id="J_2_">
				<g class="st48">
					<path id="I_2_" class="st1" d="M129.5,9L225,64.1v110.2l-95.5,55.1L34,174.2V64.1L129.5,9z"/>
				</g>
			</mask>
			<g class="st49">
				<path class="st3" d="M129.5,104.9l95.2,55.1v110.1l-95.2,55.1l-95.2-55.1V160L129.5,104.9z"/>
				<path class="st21" d="M129.6,325.2V215l95.2-55.1v110.2L129.6,325.2z"/>
				<path class="st22" d="M129.5,215l95.2-55.1l-95.2-55L34.3,160L129.5,215z"/>
				<path class="st18" d="M34.3,160l95.2,55.1v110.1l-95.2-55L34.3,160z"/>
			</g>
		</g>
		<g transform="translate(8.884 60)">
			<defs>
				<filter id="Adobe_OpacityMaskFilter_18_" filterUnits="userSpaceOnUse" x="34.2" y="103.1" width="172.8" height="200.3">
					<feColorMatrix  type="matrix" values="1 0 0 0 0  0 1 0 0 0  0 0 1 0 0  0 0 0 1 0"/>
				</filter>
			</defs>
			<mask maskUnits="userSpaceOnUse" x="34.2" y="103.1" width="172.8" height="200.3" id="L_2_">
				<g class="st50">
					<path id="K_2_" class="st1" d="M120.6,9l86.6,50.1v100.2l-86.6,50.1L34,159.3V59.1L120.6,9z"/>
				</g>
			</mask>
			<g class="st51">
				<path class="st3" d="M120.6,103.1l86.4,50.1v100.1l-86.4,50.1l-86.4-50.1V153.2L120.6,103.1z"/>
				<path class="st21" d="M120.7,303.5V203.3l86.4-50.1v100.2L120.7,303.5z"/>
				<path class="st22" d="M120.6,203.3l86.4-50.1l-86.4-50l-86.4,50.1L120.6,203.3z"/>
				<path class="st18" d="M34.2,153.2l86.4,50.1v100.1l-86.4-50.1V153.2z"/>
			</g>
		</g>
		<g transform="translate(17.767 68.871)">
			<defs>
				<filter id="Adobe_OpacityMaskFilter_19_" filterUnits="userSpaceOnUse" x="34.2" y="93.6" width="155.8" height="180.4">
					<feColorMatrix  type="matrix" values="1 0 0 0 0  0 1 0 0 0  0 0 1 0 0  0 0 0 1 0"/>
				</filter>
			</defs>
			<mask maskUnits="userSpaceOnUse" x="34.2" y="93.6" width="155.8" height="180.4" id="N_2_">
				<g class="st52">
					<path id="M_2_" class="st1" d="M112.1,9l78.1,45.1v90.2l-78.1,45.1L34,144.3V54.1L112.1,9z"/>
				</g>
			</mask>
			<g class="st53">
				<path class="st3" d="M112.1,93.6l77.9,45.1v90.2l-77.9,45.1l-77.9-45.1v-90.2L112.1,93.6z"/>
				<path class="st21" d="M112.2,273.9v-90.2l77.9-45.1v90.2L112.2,273.9z"/>
				<path class="st22" d="M112.1,183.8l77.9-45.1l-77.9-45l-77.9,45.1L112.1,183.8z"/>
				<path class="st18" d="M34.2,138.7l77.9,45.1v90.2l-77.9-45.1V138.7z"/>
			</g>
		</g>
		<g transform="translate(36.275 182.718)">
			<defs>
				<filter id="Adobe_OpacityMaskFilter_20_" filterUnits="userSpaceOnUse" x="34" y="17.1" width="15.5" height="17.7">
					<feColorMatrix  type="matrix" values="1 0 0 0 0  0 1 0 0 0  0 0 1 0 0  0 0 0 1 0"/>
				</filter>
			</defs>
			<mask maskUnits="userSpaceOnUse" x="34" y="17.1" width="15.5" height="17.7" id="P_2_">
				<g class="st54">
					<path id="O_2_" class="st1" d="M41.8,9l7.8,4.4v8.9l-7.8,4.4L34,22.3v-8.9L41.8,9z"/>
				</g>
			</mask>
			<g class="st55">
				<path class="st3" d="M41.8,17.1l7.8,4.4v8.9l-7.8,4.4L34,30.4v-8.9L41.8,17.1z"/>
				<path class="st21" d="M41.8,34.9V26l7.8-4.4v8.9L41.8,34.9z"/>
				<path class="st18" d="M41.8,26l7.8-4.4l-7.8-4.4L34,21.6L41.8,26z"/>
				<path class="st18" d="M34,21.6l7.8,4.4v8.9L34,30.4V21.6z"/>
			</g>
		</g>
		<g transform="translate(61.446 198.981)">
			<defs>
				<filter id="Adobe_OpacityMaskFilter_21_" filterUnits="userSpaceOnUse" x="34" y="17.1" width="15.5" height="17.7">
					<feColorMatrix  type="matrix" values="1 0 0 0 0  0 1 0 0 0  0 0 1 0 0  0 0 0 1 0"/>
				</filter>
			</defs>
			<mask maskUnits="userSpaceOnUse" x="34" y="17.1" width="15.5" height="17.7" id="R_2_">
				<g class="st56">
					<path id="Q_2_" class="st1" d="M41.8,9l7.8,4.4v8.9l-7.8,4.4L34,22.3v-8.9L41.8,9z"/>
				</g>
			</mask>
			<g class="st57">
				<path class="st3" d="M41.8,17.1l7.8,4.4v8.9l-7.8,4.4L34,30.4v-8.9L41.8,17.1z"/>
				<path class="st21" d="M41.8,34.9V26l7.8-4.4v8.9L41.8,34.9z"/>
				<path class="st18" d="M41.8,26l7.8-4.4l-7.8-4.4L34,21.6L41.8,26z"/>
				<path class="st18" d="M34,21.6l7.8,4.4v8.9L34,30.4V21.6z"/>
			</g>
		</g>
		<g transform="translate(95.5 210.07)">
			<defs>
				<filter id="Adobe_OpacityMaskFilter_22_" filterUnits="userSpaceOnUse" x="34" y="17.1" width="15.5" height="17.7">
					<feColorMatrix  type="matrix" values="1 0 0 0 0  0 1 0 0 0  0 0 1 0 0  0 0 0 1 0"/>
				</filter>
			</defs>
			<mask maskUnits="userSpaceOnUse" x="34" y="17.1" width="15.5" height="17.7" id="T_2_">
				<g class="st58">
					<path id="S_2_" class="st1" d="M41.8,9l7.8,4.4v8.9l-7.8,4.4L34,22.3v-8.9L41.8,9z"/>
				</g>
			</mask>
			<g class="st59">
				<path class="st3" d="M41.8,17.1l7.8,4.4v8.9l-7.8,4.4L34,30.4v-8.9L41.8,17.1z"/>
				<path class="st21" d="M41.8,34.9V26l7.8-4.4v8.9L41.8,34.9z"/>
				<path class="st18" d="M41.8,26l7.8-4.4l-7.8-4.4L34,21.6L41.8,26z"/>
				<path class="st18" d="M34,21.6l7.8,4.4v8.9L34,30.4V21.6z"/>
			</g>
		</g>
		<g transform="translate(86.616 184.935)">
			<defs>
				<filter id="Adobe_OpacityMaskFilter_23_" filterUnits="userSpaceOnUse" x="34" y="17.1" width="15.5" height="17.7">
					<feColorMatrix  type="matrix" values="1 0 0 0 0  0 1 0 0 0  0 0 1 0 0  0 0 0 1 0"/>
				</filter>
			</defs>
			<mask maskUnits="userSpaceOnUse" x="34" y="17.1" width="15.5" height="17.7" id="V_2_">
				<g class="st60">
					<path id="U_2_" class="st1" d="M41.8,9l7.8,4.4v8.9l-7.8,4.4L34,22.3v-8.9L41.8,9z"/>
				</g>
			</mask>
			<g class="st61">
				<path class="st3" d="M41.8,17.1l7.8,4.4v8.9l-7.8,4.4L34,30.4v-8.9L41.8,17.1z"/>
				<path class="st21" d="M41.8,34.9V26l7.8-4.4v8.9L41.8,34.9z"/>
				<path class="st18" d="M41.8,26l7.8-4.4l-7.8-4.4L34,21.6L41.8,26z"/>
				<path class="st18" d="M34,21.6l7.8,4.4v8.9L34,30.4V21.6z"/>
			</g>
		</g>
		<g transform="translate(82.915 160.54)">
			<defs>
				<filter id="Adobe_OpacityMaskFilter_24_" filterUnits="userSpaceOnUse" x="34" y="17.1" width="15.5" height="17.7">
					<feColorMatrix  type="matrix" values="1 0 0 0 0  0 1 0 0 0  0 0 1 0 0  0 0 0 1 0"/>
				</filter>
			</defs>
			<mask maskUnits="userSpaceOnUse" x="34" y="17.1" width="15.5" height="17.7" id="X_2_">
				<g class="st62">
					<path id="W_2_" class="st1" d="M41.8,9l7.8,4.4v8.9l-7.8,4.4L34,22.3v-8.9L41.8,9z"/>
				</g>
			</mask>
			<g class="st63">
				<path class="st3" d="M41.8,17.1l7.8,4.4v8.9l-7.8,4.4L34,30.4v-8.9L41.8,17.1z"/>
				<path class="st21" d="M41.8,34.9V26l7.8-4.4v8.9L41.8,34.9z"/>
				<path class="st18" d="M41.8,26l7.8-4.4l-7.8-4.4L34,21.6L41.8,26z"/>
				<path class="st18" d="M34,21.6l7.8,4.4v8.9L34,30.4V21.6z"/>
			</g>
		</g>
		<g transform="translate(114.748 173.846)">
			<defs>
				<filter id="Adobe_OpacityMaskFilter_25_" filterUnits="userSpaceOnUse" x="34" y="17.1" width="15.5" height="17.7">
					<feColorMatrix  type="matrix" values="1 0 0 0 0  0 1 0 0 0  0 0 1 0 0  0 0 0 1 0"/>
				</filter>
			</defs>
			<mask maskUnits="userSpaceOnUse" x="34" y="17.1" width="15.5" height="17.7" id="Z_2_">
				<g class="st64">
					<path id="Y_2_" class="st1" d="M41.8,9l7.8,4.4v8.9l-7.8,4.4L34,22.3v-8.9L41.8,9z"/>
				</g>
			</mask>
			<g class="st65">
				<path class="st3" d="M41.8,17.1l7.8,4.4v8.9l-7.8,4.4L34,30.4v-8.9L41.8,17.1z"/>
				<path class="st21" d="M41.8,34.9V26l7.8-4.4v8.9L41.8,34.9z"/>
				<path class="st18" d="M41.8,26l7.8-4.4l-7.8-4.4L34,21.6L41.8,26z"/>
				<path class="st18" d="M34,21.6l7.8,4.4v8.9L34,30.4V21.6z"/>
			</g>
		</g>
		<g transform="translate(125.112 193.807)">
			<defs>
				<filter id="Adobe_OpacityMaskFilter_26_" filterUnits="userSpaceOnUse" x="34" y="17.1" width="15.5" height="17.7">
					<feColorMatrix  type="matrix" values="1 0 0 0 0  0 1 0 0 0  0 0 1 0 0  0 0 0 1 0"/>
				</filter>
			</defs>
			<mask maskUnits="userSpaceOnUse" x="34" y="17.1" width="15.5" height="17.7" id="ab_2_">
				<g class="st66">
					<path id="aa_2_" class="st1" d="M41.8,9l7.8,4.4v8.9l-7.8,4.4L34,22.3v-8.9L41.8,9z"/>
				</g>
			</mask>
			<g class="st67">
				<path class="st3" d="M41.8,17.1l7.8,4.4v8.9l-7.8,4.4L34,30.4v-8.9L41.8,17.1z"/>
				<path class="st21" d="M41.8,34.9V26l7.8-4.4v8.9L41.8,34.9z"/>
				<path class="st18" d="M41.8,26l7.8-4.4l-7.8-4.4L34,21.6L41.8,26z"/>
				<path class="st18" d="M34,21.6l7.8,4.4v8.9L34,30.4V21.6z"/>
			</g>
		</g>
	</g>
</g>
</svg>
