<?xml version="1.0" encoding="utf-8"?>
<!-- Generator: Adobe Illustrator 22.1.0, SVG Export Plug-In . SVG Version: 6.00 Build 0)  -->
<svg version="1.0" id="Layer_1" xmlns="http://www.w3.org/2000/svg" xmlns:xlink="http://www.w3.org/1999/xlink" x="0px" y="0px"
	 viewBox="0 0 500 280" style="enable-background:new 0 0 500 280;" xml:space="preserve">
<g>
	<g>
		<path d="M100.7,4.9h34l-71.2,95.5l-33.4-44V117H0V4.9h26.8l36.7,49.5L100.7,4.9z M473.2,4.9H500V117h-30.1V56.3l-33.4,40.4
			L403,56.3V117h-30.1V4.9h26.8l36.7,49.5L473.2,4.9L473.2,4.9z M196,92.2c8.2,0,15.8-3,22.5-8l14.8,21.5
			c-11,8.7-23.2,13.9-37.4,13.9c-35.8,0-62.8-26.1-62.8-58.5c0-32.4,27-58.7,62.8-58.7c14.2,0,26.3,5.3,37.4,14.1l-14.8,21.3
			c-6.8-5.1-14.3-7.9-22.5-7.9c-18.9,0-33.3,13.6-33.3,31.1C162.7,78.4,177.1,92.2,196,92.2z M298.3,2.4c31.9,0,59.3,26.3,59.3,58.7
			c0,32.4-27.4,58.5-59.3,58.5c-31.9,0-59.4-26.1-59.4-58.5C238.9,28.7,266.5,2.4,298.3,2.4L298.3,2.4z M298.3,91.1
			c16.7,0,30.3-13.6,30.3-30.6S315,29.7,298.3,29.7c-16.7,0-30.3,13.8-30.3,30.8C268.1,77.5,281.6,91.1,298.3,91.1z M40.9,166.4h4.5
			v44.5h-5.3v-34.4l-15.8,23.9h-3.3L5.3,176.5v34.4H0v-44.5h4.5l18.2,27.5L40.9,166.4L40.9,166.4z M54.1,188.6c0-11.5,7.6-23,23-23
			c15.4,0,23,11.5,23,23s-7.6,23-23,23C61.7,211.7,54.1,200.1,54.1,188.6z M94.8,188.6c0-9.2-5.7-17.9-17.7-17.9
			c-12,0-17.7,8.8-17.7,17.9c0,9.2,5.7,17.9,17.7,17.9C89.1,206.6,94.8,197.8,94.8,188.6z M106.2,177.4c0-7.9,7.1-11.8,15.1-11.8
			c4.8,0,9.8,1.2,13.3,3.2v5.3c-3.5-2.3-8.4-3.6-13-3.5c-5.8,0-10.1,1.7-10.1,6.5c0,11.3,26.3,6.4,26.3,22.4
			c0,8.8-7.9,12.1-16.3,12.1c-5.7,0-10.8-1.4-15.1-3.8v-5.3c4.7,2.9,9.7,4.1,14.7,4.1c6.1,0,11.3-1.6,11.3-6.6
			C132.4,188,106.2,193,106.2,177.4L106.2,177.4z M142.7,189c0.1-15.4,11.7-23.3,23.2-23.3c4.4,0,8.7,1,12.4,3v5.3
			c-3.2-2.2-7.4-3.2-11.5-3.2c-9.1,0-18.6,5.5-18.7,18.2c-0.1,11.9,9.8,17.6,18.9,17.6c4.5,0,8.6-1.1,11.6-3.2v5.3
			c-3.7,1.9-8.1,3-12.8,3C154.7,211.7,142.6,203.8,142.7,189L142.7,189z M183,188.6c0-11.5,7.6-23,23-23s23,11.5,23,23
			s-7.6,23-23,23S183,200.1,183,188.6z M223.7,188.6c0-9.2-5.7-17.9-17.7-17.9c-12,0-17.7,8.8-17.7,17.9c0,9.2,5.7,17.9,17.7,17.9
			C218,206.6,223.7,197.8,223.7,188.6z M288.1,166.4h5.8l-13.9,44.5h-5.9L263,175.3l-11.1,35.6H246l-13.9-44.5h5.8l11,38l11.7-38
			h4.7l11.7,38L288.1,166.4L288.1,166.4z M1.5,235.8c4.3-3.1,9.1-4.3,13.9-4.3c8.9,0,14.8,4.3,14.8,11.9s-6.2,12-12.3,15.6
			c-6.1,3.7-12,6.7-12.1,12.6l24.7-0.1v5.2H0v-2.6c0-10.9,7.8-15,14.6-19c5.4-3.3,10.3-6,10.3-11.8c0-4.4-3.6-6.7-9.9-6.7
			c-4.4,0-9,1.5-13.5,4.7L1.5,235.8L1.5,235.8z M37.1,254.5c0-13.1,6-23,19.2-23c13.2,0,19.2,9.9,19.2,23c0,13.1-6,23-19.2,23
			C43.1,277.6,37.1,267.7,37.1,254.5L37.1,254.5z M70,254.5c0-11.1-4.3-17.8-13.8-17.8c-9.4,0-13.7,6.7-13.7,17.8
			c0,11.1,4.3,17.8,13.7,17.8C65.8,272.3,70,265.7,70,254.5z M92.6,232.3h4v39.2h8.1v5.2H82.1v-5.2h9.1v-33.4l-9.1,3.5v-5.2
			L92.6,232.3z M110.8,243c0-5.6,4.7-11.5,15.8-11.5c10,0,16,5.8,16.2,12.2c0.1,4.1-1.8,8.3-5.9,11.2c4.1,2.1,7.5,5.2,7.5,10.5
			c0,6.1-5.1,12.1-17.3,12.1c-11.9,0-17.7-6.2-17.7-13c0-4.1,2.3-8.9,7.4-12C113.3,250.5,110.8,247.5,110.8,243L110.8,243z
			 M127.3,256.8c-2.1-0.6-4.1-1.2-6.1-2c-4.5,2.2-6.6,5.9-6.6,9.2c0,5.2,4.3,8.5,12.5,8.5c6.8,0,11.8-2.7,11.8-6.7
			C139,260,133.3,258.6,127.3,256.8L127.3,256.8z M137.5,244.7c0-4.4-3.8-8.1-10.9-8.1c-6.5,0-10.3,2.8-10.3,6.3
			c0,5.8,5.9,7.1,10.9,8.7c1.6,0.5,3.4,0.9,5.3,1.5C135.8,250.9,137.5,247.7,137.5,244.7z"/>
	</g>
</g>
</svg>
