<?xml version="1.0" encoding="utf-8"?>
<!-- Generator: Adobe Illustrator 22.1.0, SVG Export Plug-In . SVG Version: 6.00 Build 0)  -->
<svg version="1.0" id="Layer_1" xmlns="http://www.w3.org/2000/svg" xmlns:xlink="http://www.w3.org/1999/xlink" x="0px" y="0px"
	 viewBox="0 0 500 280" style="enable-background:new 0 0 500 280;" xml:space="preserve">
<style type="text/css">
	.st0{enable-background:new    ;}
</style>
<g id="MCOM2019">
	<g id="Group" transform="translate(-4.000000, 0.000000)">
		<g class="st0">
			<path d="M52,160.1v43.6h-5.2v-33.7l-15.6,23.4h-3.2l-15.6-23.4v33.7H7v-43.6h4.5l18,26.9l18-26.9H52z"/>
			<path d="M83.4,159.4c15.3,0,22.8,11.3,22.8,22.6c0,11.3-7.5,22.6-22.8,22.6S60.5,193.2,60.5,182
				C60.5,170.7,68.1,159.4,83.4,159.4z M83.4,164.4c-11.8,0-17.5,8.6-17.5,17.6c0,9,5.7,17.6,17.5,17.6s17.5-8.6,17.5-17.6
				C100.9,173,95.2,164.4,83.4,164.4z"/>
			<path d="M127,159.4c4.8,0,9.7,1.2,13.2,3.2v5.2c-3.5-2.2-8.4-3.5-12.8-3.4c-5.7,0-10,1.7-10,6.4c0,11,26,6.3,26,21.9
				c0,8.7-7.8,11.9-16.1,11.8c-5.7,0-10.7-1.4-15-3.7v-5.2c4.6,2.8,9.6,4,14.6,4c6,0,11.2-1.6,11.2-6.5c0-11.7-26-6.8-26-22.1
				C112.1,163.1,119.1,159.4,127,159.4z"/>
			<path d="M171.2,159.4c4.4,0,8.6,1,12.3,2.9v5.2c-3.2-2.1-7.3-3.2-11.4-3.2c-9,0-18.5,5.4-18.5,17.9c-0.1,11.7,9.7,17.3,18.7,17.3
				c4.5,0,8.5-1.1,11.5-3.2v5.2c-3.6,1.9-8,2.9-12.7,2.9c-11,0-22.9-7.7-22.9-22.3C148.3,167.1,159.8,159.4,171.2,159.4z"/>
			<path d="M211,159.4c15.3,0,22.8,11.3,22.8,22.6c0,11.3-7.5,22.6-22.8,22.6s-22.8-11.3-22.8-22.6
				C188.1,170.7,195.7,159.4,211,159.4z M211,164.4c-11.8,0-17.5,8.6-17.5,17.6c0,9,5.7,17.6,17.5,17.6c11.8,0,17.5-8.6,17.5-17.6
				C228.5,173,222.8,164.4,211,164.4z"/>
			<path d="M298,160.1l-13.7,43.6h-5.9l-11-34.9l-11,34.9h-5.8l-13.7-43.6h5.7l10.9,37.3l11.6-37.3h4.7l11.6,37.3l10.9-37.3H298z"/>
		</g>
		<g class="st0">
			<path d="M19.1,235.6c8.7,0,14.5,4.1,14.5,11.3c0,7.2-6,11.4-12,14.9c-5.9,3.5-11.7,6.4-11.8,12l24.1-0.1v5H4v-2.5
				c0-10.3,7.6-14.3,14.2-18.1c5.3-3.1,10.1-5.7,10.1-11.2c0-4.2-3.6-6.4-9.7-6.4c-4.3,0-8.8,1.4-13.2,4.5v-5.2
				C9.7,236.8,14.4,235.6,19.1,235.6z"/>
			<path d="M58.9,235.6c12.9,0,18.8,9.4,18.8,21.9s-5.9,21.9-18.8,21.9c-12.8,0-18.7-9.4-18.7-21.9S46.1,235.6,58.9,235.6z
				 M58.9,240.6c-9.2,0-13.4,6.4-13.4,17c0,10.6,4.2,17,13.4,17c9.3,0,13.5-6.4,13.5-17C72.4,246.9,68.2,240.6,58.9,240.6z"/>
			<path d="M98.3,236.3v37.4h7.9v5H84.2v-5h8.9v-31.9l-8.9,3.4v-5l10.3-3.9H98.3z"/>
			<path d="M125.2,235.6c12.3,0,17.9,8.2,17.9,21.3c0,15.6-8.4,22.6-19.3,22.6c-3.6,0-7.2-0.9-10.3-2.4v-5c3.2,1.7,6.8,2.4,10.2,2.4
				c7.1,0,13.5-4.1,14.1-15.8c-4.3,2.9-8.4,4.1-13.3,4.1c-7,0-14.5-4.4-14.5-13.3C110,240.4,117,235.6,125.2,235.6z M115.3,249.2
				c0,6.7,5,8.7,10.5,8.7c4.2,0,8.5-1.4,11.9-4.4c-0.8-8.9-5.2-13-12.2-13C119.9,240.4,115.3,242.8,115.3,249.2z"/>
		</g>
		<path id="Combined-Shape" d="M109.4,2.9H143L72.6,95.7l-33-42.8V112H9.8V2.9h26.5L72.6,51L109.4,2.9z M477.5,2.9H504V112h-29.8
			V52.9l-33,39.3l-33-39.3V112h-29.8V2.9h26.5L441.2,51L477.5,2.9z M203.5,87.8c8.1,0,15.6-3,22.3-7.8l14.6,20.9
			c-10.9,8.4-22.9,13.6-36.9,13.6c-35.4,0-62-25.4-62-56.9s26.6-57,62-57c14,0,26,5.1,36.9,13.7L225.8,35c-6.7-5-14.2-7.6-22.3-7.6
			c-18.7,0-32.9,13.2-32.9,30.2C170.7,74.4,184.8,87.8,203.5,87.8z M304.7,0.5c31.5,0,58.6,25.6,58.6,57s-27.1,56.9-58.6,56.9
			s-58.8-25.4-58.8-56.9S273.2,0.5,304.7,0.5z M304.7,86.7c16.5,0,29.9-13.2,29.9-29.8S321.2,27,304.7,27S274.8,40.4,274.8,57
			S288.2,86.7,304.7,86.7z"/>
	</g>
</g>
</svg>
