<?xml version="1.0" encoding="utf-8"?>
<!-- Generator: Adobe Illustrator 22.1.0, SVG Export Plug-In . SVG Version: 6.00 Build 0)  -->
<svg version="1.0" id="Layer_3" xmlns="http://www.w3.org/2000/svg" xmlns:xlink="http://www.w3.org/1999/xlink" x="0px" y="0px"
	 viewBox="0 0 1200 240" style="enable-background:new 0 0 1200 240;" xml:space="preserve">
<style type="text/css">
	.st0{fill:#F93838;}
	.st1{fill:#FFFFFF;}
</style>
<g>
	<path d="M126.9,60c14.9,0,30.8,3.4,42.1,9.5v32.8c-11.1-7-25.2-11.1-38-11c-7.7,0-10.2,2-10.2,5.1c0,12,55.7,6.6,55.7,46.4
		c0,29.3-21.8,37.2-48.2,37.2c-17.4,0-33-3.8-45.6-10.8v-34.3c14.3,9.3,29.5,13.4,41.8,13.4c10,0,12.9-1.8,12.9-5.6
		c0-11.8-55.7-7.2-55.7-47.2C81.8,71.5,102,60,126.9,60z"/>
	<path d="M276.3,60c41.3,0,62.1,27,62.1,60c0,32.9-20.8,60-62.1,60c-41.3,0-62.1-27-62.1-60C214.2,87,235,60,276.3,60z M276.3,94.3
		c-14.8,0-23.3,10-23.3,25.8s8.5,25.7,23.3,25.7c14.8,0,23.3-10,23.3-25.7S291.1,94.3,276.3,94.3z"/>
	<path d="M418.9,62.6v81.6h49v33.1H381V62.6H418.9z"/>
	<path d="M554.2,62.6c41.2,0,59.5,23.8,59.5,57.4c0,33.6-18.4,57.4-59.5,57.4h-49.5V62.6H554.2z M553.2,94.4h-10.7v51.1h10.7
		c13.4,0,21.6-6.9,21.6-25.6S566.7,94.4,553.2,94.4z"/>
	<path d="M773.7,60c41.3,0,62.1,27,62.1,60c0,32.9-20.8,60-62.1,60c-41.3,0-62.1-27-62.1-60C711.6,87,732.4,60,773.7,60z
		 M773.7,94.3c-14.8,0-23.3,10-23.3,25.8s8.5,25.7,23.3,25.7c14.8,0,23.3-10,23.3-25.7S788.5,94.3,773.7,94.3z"/>
	<path d="M983.7,62.6v70.2c0,35.4-26.1,47.2-53.3,47.2c-27.2,0-53.3-11.8-53.3-47.2V62.6H915V131c0,10.7,5.6,15.1,15.4,15.1
		c10,0,15.6-4.4,15.6-15.1V62.6H983.7z"/>
	<path d="M1118.2,62.6v33.1h-30.8v81.6h-37.7V95.7h-30.8V62.6H1118.2z"/>
</g>
<rect x="270" y="90" class="st0" width="660" height="60"/>
<g>
	<path class="st1" d="M426.4,131v-25.2h20.6V131h-3v-22.3h-14.5V131H426.4z"/>
	<path class="st1" d="M462.5,113.3c4.9,0,8.6,3.9,8.6,9.1c0,5.2-3.7,9.1-8.6,9.1c-3.3,0-5.4-1.5-6.7-3v10.5h-2.9v-25.2h2.6v2.9
		C457.1,114.8,459.2,113.3,462.5,113.3z M462.2,115.9c-3.1,0-5.4,2-6.4,4.2v4.3c1,2.2,3.3,4.2,6.4,4.2c3.3,0,6.1-2.4,6.1-6.4
		C468.3,118.4,465.5,115.9,462.2,115.9z"/>
	<path class="st1" d="M483.3,113.3c4.7,0,9.2,3.2,9.2,9.1c0,5.9-4.5,9.1-9.2,9.1c-4.7,0-9.2-3.2-9.2-9.1
		C474.1,116.4,478.6,113.3,483.3,113.3z M483.3,116c-3.5,0-6.3,2.3-6.3,6.3c0,4,2.8,6.3,6.3,6.3c3.5,0,6.3-2.3,6.3-6.3
		C489.6,118.3,486.8,116,483.3,116z"/>
	<path class="st1" d="M494.5,135.6v-7.3h2.3c2.2-3.8,3-8.2,3-14.7h12.9v14.7h2.5v7.3h-2.8V131h-15v4.7H494.5z M499.9,128.4h9.8
		v-12.1h-7.2C502.3,121.5,501.5,125.1,499.9,128.4z"/>
	<path class="st1" d="M534.4,128.7c0.4,0,0.9-0.1,1.3-0.3v2.3c-0.7,0.3-1.4,0.4-2.2,0.4c-1.4,0-2.7-0.6-3.2-2.1
		c-1.7,1.4-3.9,2.3-6.7,2.3c-3.1,0-6.1-1.6-6.1-5.3c0-4.5,4.1-5.8,7.8-5.8c1.5,0,3.3,0.2,4.8,0.5v-0.6c0-2.6-1.8-4.3-4.9-4.3
		c-2.7,0-4.8,0.6-6.3,1.3v-2.8c1.4-0.5,3.7-1.2,6.6-1.2c4.6,0,7.5,2.5,7.5,7.3v6.8C533,128.4,533.6,128.7,534.4,128.7z M524.2,128.9
		c2.2,0,4.4-0.9,5.9-2.5v-3.2c-1.2-0.3-3-0.5-4.4-0.5c-2.5,0-5.3,0.8-5.3,3.3C520.5,128,522.3,128.9,524.2,128.9z"/>
	<path class="st1" d="M559.8,131l-5.9-7.2h-2.8v7.2h-2.9v-7.2h-2.8l-5.9,7.2h-3.2l6.9-8.7l-6.1-8.6h3.2l5.3,7.4h2.6v-7.4h2.9v7.4
		h2.6l5.3-7.4h3.2l-6.1,8.6l6.9,8.7H559.8z"/>
	<path class="st1" d="M565.9,131v-17.3h2.9v12.6l10.6-12.6h2.4V131H579v-12.6L568.4,131H565.9z"/>
	<path class="st1" d="M601.3,131.4c-2.4,0-4.8-0.5-6.4-1.3v-2.7c1.5,0.8,3.9,1.4,6,1.4c2.7,0,5.3-0.5,5.3-2.7c0-2.1-2.1-2.5-3.8-2.5
		h-3.8v-2.7h3.8c1.9,0,3.5-0.6,3.5-2.2c0-1.9-2.1-2.7-4.8-2.7c-2.1,0-4.3,0.6-5.9,1.4v-2.7c1.7-0.8,3.9-1.3,6.2-1.3
		c4.8,0,7.3,2,7.3,5c0,2.1-1.3,3.5-3.2,3.9c1.9,0.5,3.6,2,3.6,4.2C609.1,129.6,606.1,131.4,601.3,131.4z"/>
	<path class="st1" d="M628.7,128.7c0.4,0,0.9-0.1,1.3-0.3v2.3c-0.7,0.3-1.4,0.4-2.2,0.4c-1.4,0-2.7-0.6-3.2-2.1
		c-1.7,1.4-3.9,2.3-6.7,2.3c-3.1,0-6.1-1.6-6.1-5.3c0-4.5,4.1-5.8,7.8-5.8c1.5,0,3.3,0.2,4.8,0.5v-0.6c0-2.6-1.8-4.3-4.9-4.3
		c-2.7,0-4.8,0.6-6.3,1.3v-2.8c1.4-0.5,3.7-1.2,6.6-1.2c4.6,0,7.5,2.5,7.5,7.3v6.8C627.3,128.4,627.9,128.7,628.7,128.7z
		 M618.6,128.9c2.2,0,4.4-0.9,5.9-2.5v-3.2c-1.2-0.3-3-0.5-4.4-0.5c-2.5,0-5.3,0.8-5.3,3.3C614.8,128,616.6,128.9,618.6,128.9z"/>
	<path class="st1" d="M633.1,131v-17.3h2.9v7.2h3.5l5.5-7.2h3.3l-6.6,8.6l7.3,8.7h-3.4l-6.3-7.4H636v7.4H633.1z"/>
	<path class="st1" d="M659.1,113.3c4.7,0,9.2,3.2,9.2,9.1c0,5.9-4.5,9.1-9.2,9.1c-4.7,0-9.2-3.2-9.2-9.1
		C649.9,116.4,654.4,113.3,659.1,113.3z M659.1,116c-3.5,0-6.3,2.3-6.3,6.3c0,4,2.8,6.3,6.3,6.3s6.3-2.3,6.3-6.3
		C665.4,118.3,662.6,116,659.1,116z"/>
	<path class="st1" d="M672.4,131v-17.3h2.9v7.3h10v-7.3h2.9V131h-2.9v-7.3h-10v7.3H672.4z"/>
	<path class="st1" d="M704.2,131v-6c-1.6,0.6-3,0.9-5.1,0.9c-4,0-6.7-1.9-6.7-6.2v-6h2.9v5.8c0,2.9,1.8,3.7,4.6,3.7
		c1.7,0,3-0.2,4.3-0.8v-8.7h2.9V131H704.2z"/>
	<path class="st1" d="M719.8,113.3c6.7,0,9.1,5.4,8,10.3h-13.8c0.4,3.6,3.6,5.1,7.1,5.1c2.1,0,4.2-0.6,5.7-1.4v2.8
		c-1.6,0.8-3.9,1.3-6.1,1.3c-5.1,0-9.6-2.9-9.6-9.1C711.2,116.3,715.7,113.3,719.8,113.3z M720,115.9c-3,0-5.7,1.8-5.9,5.1h11.2
		C725.5,119.2,724.4,115.9,720,115.9z"/>
	<path class="st1" d="M732,131v-17.3h2.9v7.3h10v-7.3h2.9V131h-2.9v-7.3h-10v7.3H732z"/>
	<path class="st1" d="M753.1,131v-17.3h2.9v6h5.3c4.2,0,6.7,2.4,6.7,5.6c0,3.2-2.5,5.6-6.7,5.6H753.1z M756,128.4h5
		c2.5,0,4.1-1,4.1-3s-1.6-3-4.1-3h-5V128.4z M771.4,131v-17.3h2.9V131H771.4z"/>
</g>
</svg>
