<svg xmlns="http://www.w3.org/2000/svg" width="485" height="634" viewBox="0 0 485 634">
    <g fill="none" fill-rule="evenodd">
        <path fill="#FFF" d="M-111-7409h1440V3668H-111z"/>
        <g fill-rule="nonzero">
            <path fill="#BFBFBF" d="M91 613l70-42 70 42 35-21-70-42 70-42-35-21-70 42-70-42-35 21 70 42-70 42z"/>
            <path fill="#D1D1D1" d="M56 508v21l52.402 31.472L126 550z"/>
            <path fill="#AFAFAF" d="M196 550l17.574 10.612L266 529v-21z"/>
            <path fill="#D1D1D1" d="M161 571v21l70 42v-21z"/>
            <path fill="#AFAFAF" d="M231 613l35-21v21l-35 21zM161 592v-21l-70 42v21z"/>
            <path fill="#D1D1D1" d="M56 613v-21l35 21v21z"/>
            <g>
                <path fill="#7B7B7B" d="M131.094 236.942l30.698 18.446V568.34l-30.698-18.446z"/>
                <path fill="#555" d="M192.49 236.942l-30.698 18.446V568.34l30.698-18.446z"/>
                <path fill="#3A3A3A" d="M131.094 236.942l30.698 18.446 30.698-18.446-30.698-18.445z"/>
            </g>
            <g>
                <path fill="#4A4A4A" d="M0 120.42l84.104 50.408v134.421L0 254.841z"/>
                <path fill="#222" d="M196.243 103.617l-112.139 67.21V305.25l112.139-67.21z"/>
                <path fill="#3A3A3A" d="M0 120.42l84.104 50.408 112.139-67.211-84.104-50.408z"/>
                <path fill="#FDD301" d="M84.104 170.828l33.642 19.603v134.422l-33.642-19.604z"/>
                <path fill="#A48900" d="M229.884 123.22l-112.138 67.21v134.423l112.138-67.211z"/>
                <path fill="#FDE35F" d="M84.104 170.828l33.642 19.603 112.138-67.211-33.641-19.603z"/>
                <path fill="#4A4A4A" d="M117.746 190.99l112.138 67.212v134.422l-112.138-67.211z"/>
                <path fill="#222" d="M342.023 190.99l-112.139 67.212v134.422l112.14-67.211z"/>
                <path fill="#3A3A3A" d="M117.746 190.99l112.138 67.212 112.14-67.211-112.14-67.211z"/>
                <g>
                    <path fill="#4A4A4A" d="M246.705 264.363l84.104 50.408v100.816l-84.104-50.408z"/>
                    <path fill="#222" d="M414.913 264.363L330.81 314.77v100.816l84.104-50.408z"/>
                    <path fill="#3A3A3A" d="M246.705 264.363l84.104 50.408 84.104-50.408-84.104-50.408z"/>
                </g>
                <g>
                    <path fill="#444" d="M31.96 26.884l11.213 6.721v53.77L31.96 80.652z"/>
                    <path fill="#222" d="M88.029 6.721L43.173 33.605v53.77L88.03 60.49z"/>
                    <path fill="#333" d="M31.96 26.884l11.213 6.721L88.03 6.721 76.815 0z"/>
                </g>
                <g>
                    <path fill="#444" d="M308.382 299.088l28.034 16.803v134.422l-28.034-16.803z"/>
                    <path fill="#222" d="M448.555 248.68l-112.139 67.211v134.422l112.139-67.211z"/>
                    <path fill="#333" d="M308.382 299.088l28.034 16.803 112.139-67.21-28.035-16.803z"/>
                    <g>
                        <path fill="#222" d="M350.434 332.694L485 252.04v161.306L350.434 494z"/>
                        <path fill="#3A3A3A" d="M384.075 393.184v40.326l67.283-40.326-33.641-20.164z"/>
                        <path fill="#4A4A4A" d="M417.717 373.02v-40.326l33.641-20.163v80.653z"/>
                        <path fill="#A48900" d="M384.075 393.341v-40.484l33.6-20.163v40.326z"/>
                        <path fill="#4A4A4A" d="M316.792 312.53l33.642 20.164V494l-33.642-20.163z"/>
                        <path fill="#3A3A3A" d="M316.792 312.53l134.566-80.652L485 252.04l-134.566 80.653z"/>
                    </g>
                </g>
                <g>
                    <path fill="#4A4A4A" d="M0 285.086l33.642 20.163v120.98L0 406.066z"/>
                    <path fill="#222" d="M168.208 224.596L33.642 305.25v120.98l134.566-80.653z"/>
                    <path fill="#3A3A3A" d="M0 285.086l33.642 20.163 134.566-80.653-33.642-20.163z"/>
                </g>
                <g>
                    <path fill="#4A4A4A" d="M190.636 187.63v-33.605l-84.104-50.408v33.605L78.497 120.42V86.814L50.462 70.011V36.406l168.209 100.816v67.211z"/>
                    <path fill="#222" d="M218.67 204.433v-67.21l28.035-16.803v67.21z"/>
                    <path fill="#3A3A3A" d="M246.705 120.42L78.497 19.603 50.462 36.406l168.209 100.816z"/>
                    <path fill="#222" d="M106.532 137.222v-33.605l28.034 16.803z"/>
                </g>
                <g>
                    <path fill="#D1D1D1" d="M207.457 105.381l67.283 40.326v40.327l-67.283-40.327z"/>
                    <path fill="#AFAFAF" d="M308.382 125.544l-33.642 20.163v40.327l33.642-20.163z"/>
                    <path fill="#BFBFBF" d="M207.457 105.381l67.283 40.326 33.642-20.163-67.284-40.326z"/>
                </g>
            </g>
        </g>
    </g>
</svg>
